<?xml version="1.0" encoding="utf-8"?>
<!-- Generator: Adobe Illustrator 21.0.0, SVG Export Plug-In . SVG Version: 6.00 Build 0)  -->
<svg version="1.1" id="Réteg_1" xmlns="http://www.w3.org/2000/svg" xmlns:xlink="http://www.w3.org/1999/xlink" x="0px" y="0px"
	 viewBox="0 0 302.2 211.2" style="enable-background:new 0 0 302.2 211.2;" xml:space="preserve">
<style type="text/css">
	.st0{fill:#75B9E6;}
	.st1{fill:#E59C75;}
	.st2{fill:#79C472;}
	.st3{fill:#AD8F8F;}
	.st4{fill:#9C7FBA;}
	.st5{fill:#737ABA;}
	.st6{fill:#010101;}
</style>
<polygon class="st0" points="187.9,181.2 203.7,184.9 221.3,183.6 235.5,179.1 247.7,172 258.5,162.4 268.5,149.3 275.9,130.2 
	275.9,106.9 275.9,84.8 270.5,67.9 260.1,50.3 244,36.3 227,29.8 210,27.1 194.7,28 179.4,34.1 166.4,41.3 155.5,51.4 147.6,63.8 
	141.6,80.1 141.2,92.5 141.2,207.3 163.4,207.3 163.4,93.3 169.5,70.9 182.4,58.2 197.9,51.6 212.5,49.9 226.2,53.3 240,62.3 
	249.4,74.9 253,87.8 253.5,110.1 252.8,129.3 247,142.2 238.2,151.4 227.1,158.9 212.3,161.9 199.4,161.1 186.4,156.8 "/>
<polygon class="st1" points="190.9,182.4 187.1,182.4 187.7,207.3 220.9,207.3 237,202.3 261.2,190.3 281.2,171.9 291.9,153.8 
	297.5,130.5 298.2,105.2 298.2,83.8 294.7,68 285.1,45.9 272.5,30.8 260,20.9 246.9,12.9 233,7.3 214.9,4.1 191.7,6.1 172.7,13 
	150.6,26.3 134.3,44.3 123,66.4 118.4,88.2 119.3,133.8 118.4,181 118.4,206.3 137.3,207.3 140.9,205.8 141.4,189.1 141.4,159.1 
	141.2,132.6 141.2,89.9 146.3,67.9 161.1,47.3 175.7,35.3 196.9,28.6 218.7,27.4 234.4,31.9 252.4,43 265.7,58.8 272.9,72.4 
	276.4,95.5 276.8,111.1 275.9,131.1 270.2,146.5 264.2,156.1 252.2,169.2 238.2,178 225.6,183.3 212.1,184.2 197.3,183.6 "/>
<polygon class="st2" points="186.9,157 195.4,159.8 207.6,161.6 222,159.9 237,152.1 248.1,139.7 253.9,125.1 253.9,105.2 253.9,88 
	245.6,69.7 234.4,58.6 220.4,50.7 206.5,49.4 186.9,55 174,65.3 166,79.2 163.8,91.6 163.4,205.9 186.8,205.9 184.5,141.4 
	185.5,106 188.3,84.6 195.8,76.2 209.7,71.5 225,79 229.9,91 231.4,106 230.5,121.4 225.8,133.6 214.2,138.6 201.6,137.9 
	189.4,132.4 187.4,134.9 "/>
<polygon class="st3" points="115.9,157.3 104.4,160.8 85.6,160.8 67.4,153 54.1,138 49.9,121 49.9,87.3 58.4,67.5 73.9,54.8 
	89.9,49.4 107.4,51.3 118.4,56 123.9,60 135.4,41.1 114.8,29.8 95.2,27.1 75.4,30.8 55.5,40.5 40.6,53.5 31.3,73.5 27.3,89.8 
	27.8,126.5 33,143.7 41.8,159 56.1,172.8 73.6,181.5 92.6,184.8 114.9,183 "/>
<polygon class="st4" points="114.8,182 102.9,184.5 78.4,182 52.9,171.5 37.9,154.5 28.4,133.3 27.3,120.3 27.3,84 35.6,62.5 
	50.6,43.5 66.4,33.8 86.6,27.1 105.9,28.3 121.1,32.5 133,39.3 137.1,39.8 151,25 129.9,11.8 101.1,4.1 74.1,7.3 49.9,16 29.1,32.5 
	15.4,52 8.1,69 5.1,84.5 5.1,126.5 9.6,146.3 18.6,164.3 31.6,181.8 49.9,195.6 67.6,203.5 86.4,207.3 116.6,207.3 "/>
<polygon class="st5" points="123.9,60 110.9,52.8 97.1,49.4 83,51.7 69.7,58.2 56.7,71.3 50.6,85.5 50.6,104 50.6,120 52.8,132.8 
	62.2,147.2 76.4,158.5 95.2,162 110.2,159 115.9,157.3 116.1,127.7 108.1,135.3 98.4,139 85.6,138.3 76.6,130 72.1,117.2 72.1,90.8 
	79.9,77.3 93.1,72.3 105.1,73.5 115.4,84.5 "/>
<rect x="93.9" y="203.5" class="st6" width="116.4" height="7.5"/>
<g>
	<path class="st6" d="M131.4,8.4C120,3.5,107.8,1,94.8,1S69.6,3.5,58.2,8.4S36.9,20,28.5,28.5C20.1,37,13.4,46.9,8.6,58.4
		C3.7,69.8,1.2,82,1.2,95v22.2c0,13,2.4,25.2,7.4,36.6c4.9,11.4,11.5,21.4,19.9,29.9s18.3,15.2,29.7,20.1
		c11.4,4.9,23.6,7.4,36.6,7.4c6.4,0,12.8-0.6,19.2-1.8c0.6,1.2,1.7,1.8,3.3,1.8h23l0,0c-1.4,0-2.8,0-4.1,0c-4.5,0-6.4-4.1-5.6-7.5
		h-9.3V94.9c0-7.4-2.6-13.6-7.6-18.8c-5.1-5.1-11.4-7.6-18.8-7.6c-7.4,0-13.6,2.6-18.6,7.6c-5,5.1-7.5,11.4-7.5,18.8v22.2
		c0,7.4,2.5,13.6,7.5,18.8c5,5.1,11.2,7.6,18.6,7.6c3.8,0,7.3-0.7,10.5-2.1s6-3.3,8.4-5.7V154c-5.8,3-12.1,4.5-18.9,4.5
		c-5.8,0-11.2-1.1-16.1-3.3c-4.9-2.2-9.3-5.1-13.1-8.8c-3.8-3.7-6.8-8-8.9-13.1c-2.1-5-3.1-10.4-3.1-16.2V94.9
		c0-5.6,1.1-10.9,3.1-16c2.1-5.1,5-9.5,8.9-13.2c3.8-3.7,8.1-6.6,13.1-8.8c4.9-2.2,10.2-3.3,16.1-3.3c5.6,0,10.9,1.1,16,3.3
		c4.5,1.9,8.4,4.5,11.9,7.6c-0.3-2.7,1.1-5.6,4-6.4c-3.8-3.3-8.1-6-12.9-8.1c-5.9-2.6-12.3-3.9-19-3.9c-6.8,0-13.2,1.3-19.1,3.9
		c-5.9,2.6-11.1,6.1-15.4,10.5C56,64.9,52.5,70.1,50,76s-3.8,12.3-3.8,19v22.2c0,6.8,1.2,13.2,3.8,19c2.5,5.9,5.9,11.1,10.4,15.5
		c4.4,4.4,9.5,7.9,15.4,10.5c5.9,2.6,12.2,3.9,19.1,3.9c3.4,0,6.6-0.3,9.8-1.1c3.1-0.7,6.1-1.6,9.1-2.8v16.1
		c-6,1.8-12.3,2.7-18.9,2.7c-8.8,0-17.1-1.6-24.9-4.9s-14.6-7.8-20.2-13.7c-5.7-5.8-10.2-12.6-13.5-20.4s-4.9-16.1-4.9-24.9V94.9
		c0-8.8,1.6-17.1,4.9-24.9s7.8-14.6,13.5-20.4S62.2,39.2,70,35.9c7.8-3.3,16.1-4.9,24.9-4.9c8.8,0,17.1,1.6,24.9,4.9
		c5.1,2.1,9.7,4.9,13.9,8.1c0.7-2.4,2.8-4.6,5.5-4.9c-5-3.9-10.4-7.3-16.5-9.9c-8.7-3.8-18-5.7-27.8-5.7s-19,1.9-27.6,5.7
		c-8.6,3.8-16.2,8.9-22.6,15.3c-6.5,6.4-11.6,13.9-15.3,22.6c-3.7,8.7-5.6,18-5.6,27.8v22.2c0,9.8,1.8,19,5.6,27.8
		c3.7,8.7,8.8,16.3,15.3,22.6c6.5,6.4,14,11.5,22.6,15.3c8.6,3.8,17.8,5.7,27.6,5.7c6.2,0,12.5-0.8,18.9-2.4v9.1v8.4
		c0,0-18.7,0-18.9,0c-12,0-23.2-2.2-33.6-6.8c-10.4-4.5-19.5-10.6-27.3-18.4S20.1,161.5,15.6,151s-6.8-21.8-6.8-33.8V95
		c0-12,2.2-23.2,6.8-33.8S26.2,41.6,34,33.8s16.9-13.9,27.3-18.4s21.6-6.8,33.6-6.8s23.2,2.2,33.8,6.8c7.6,3.3,14.5,7.4,20.7,12.4
		c1-2.8,3.6-4.8,6.2-4.5C148.4,17.2,140.3,12.2,131.4,8.4z M113.7,117.1c0,5.2-1.9,9.7-5.6,13.3c-3.7,3.7-8.2,5.6-13.3,5.6
		c-5.2,0-9.6-1.8-13.2-5.6c-3.6-3.7-5.4-8.1-5.4-13.3V94.9c0-5.2,1.8-9.6,5.4-13.3c3.6-3.7,8-5.6,13.2-5.6s9.6,1.9,13.3,5.6
		s5.6,8.2,5.6,13.3V117.1z"/>
</g>
<g>
	<path class="st6" d="M294.9,58.3C290,46.9,283.4,37,275,28.4c-8.4-8.5-18.3-15.2-29.7-20.1s-23.6-7.4-36.6-7.4s-25.2,2.5-36.6,7.4
		c-11.4,4.9-21.3,11.6-29.9,20.1c-8.5,8.5-15.2,18.4-20.1,29.9c-4.9,11.4-7.4,23.6-7.4,36.6v112.5c0,2.4,1.3,3.6,3.9,3.6h67.5
		c1.6,0,2.7-0.6,3.3-1.8c6.4,1.2,12.8,1.8,19.2,1.8c13,0,25.2-2.4,36.6-7.4c11.4-4.9,21.3-11.6,29.7-20.1s15-18.4,19.9-29.9
		c4.9-11.4,7.4-23.6,7.4-36.6V94.8C302.3,81.9,299.9,69.7,294.9,58.3z M159.8,94.9v108.6h-15V94.9c0-8.8,1.6-17.1,4.9-24.9
		s7.9-14.6,13.7-20.4s12.6-10.4,20.4-13.7s16.1-4.9,24.9-4.9c8.8,0,17.1,1.6,24.9,4.9c7.8,3.3,14.6,7.9,20.2,13.7
		c5.7,5.8,10.2,12.6,13.5,20.4s5,16.1,5,24.9v22.2c0,8.8-1.6,17.1-5,24.9c-3.3,7.8-7.8,14.6-13.5,20.4s-12.4,10.4-20.2,13.7
		s-16.1,4.9-24.9,4.9c-6.6,0-12.9-0.9-18.9-2.7v-16.2c3,1.2,6.1,2.2,9.1,2.8c3.1,0.7,6.4,1.1,9.8,1.1c6.8,0,13.2-1.3,19.1-3.9
		c5.9-2.6,11.1-6.1,15.4-10.5c4.4-4.4,7.9-9.5,10.4-15.5c2.5-5.9,3.8-12.2,3.8-19V94.9c0-6.8-1.2-13.1-3.8-19
		c-2.5-5.9-5.9-11-10.4-15.5c-4.4-4.4-9.5-7.9-15.4-10.5S215.6,46,208.7,46c-6.8,0-13.1,1.3-19,3.9s-11,6.1-15.5,10.5
		c-4.4,4.4-7.9,9.6-10.5,15.5C161.1,81.8,159.8,88.1,159.8,94.9z M182.3,94.9v108.6h-15V94.9c0-5.6,1.1-10.9,3.3-16
		s5.2-9.5,8.9-13.2s8.1-6.6,13.2-8.8c5.1-2.2,10.5-3.3,16-3.3c5.8,0,11.2,1.1,16.1,3.3c4.9,2.2,9.3,5.2,13,8.8
		c3.8,3.7,6.8,8.1,8.9,13.2c2.1,5.1,3.1,10.5,3.1,16v22.2c0,5.8-1,11.2-3.1,16.2s-5,9.4-8.9,13.1c-3.8,3.7-8.1,6.7-13,8.8
		c-4.9,2.2-10.2,3.3-16.1,3.3c-6.8,0-13.1-1.5-18.9-4.5v-18.3c2.4,2.4,5.2,4.3,8.4,5.7c3.2,1.4,6.7,2.1,10.5,2.1
		c7.4,0,13.6-2.6,18.6-7.6c5-5.1,7.5-11.3,7.5-18.8V94.9c0-7.4-2.5-13.6-7.5-18.8c-5-5.1-11.2-7.6-18.6-7.6
		c-7.4,0-13.6,2.6-18.8,7.6C184.8,81.3,182.3,87.5,182.3,94.9z M189.8,117.1V94.9c0-5.2,1.9-9.6,5.5-13.3c3.7-3.7,8.2-5.6,13.4-5.6
		s9.6,1.9,13.2,5.6c3.6,3.7,5.4,8.2,5.4,13.3v22.2c0,5.2-1.8,9.7-5.4,13.3c-3.6,3.7-8,5.6-13.2,5.6s-9.6-1.8-13.4-5.6
		C191.6,126.8,189.8,122.3,189.8,117.1z M294.8,117.1c0,12-2.2,23.2-6.8,33.8s-10.6,19.6-18.5,27.4c-7.8,7.8-16.9,13.9-27.3,18.4
		c-10,4.3-20.8,6.6-32.2,6.7c-0.6,0.1-2.9,0-2.8,0c-2.4,0-4.7,0-7.1,0c-2.4,0-10.2,0-10.3,0l-0.1-17.4c6.4,1.6,12.7,2.4,18.9,2.4
		c9.8,0,19-1.9,27.6-5.7s16.2-8.9,22.6-15.3c6.5-6.4,11.6-13.9,15.3-22.6s5.5-17.9,5.5-27.8V94.8c0-9.8-1.8-19-5.5-27.8
		c-3.7-8.7-8.8-16.2-15.3-22.6s-14-11.5-22.6-15.3s-17.8-5.7-27.6-5.7s-19,1.9-27.8,5.7c-8.7,3.8-16.2,8.9-22.7,15.3
		c-6.4,6.4-11.5,13.9-15.3,22.6s-5.7,18-5.7,27.8v108.6h-15V94.9c0-12,2.2-23.2,6.8-33.8s10.6-19.6,18.4-27.4s17-13.9,27.5-18.4
		s21.8-6.8,33.8-6.8s23.2,2.2,33.6,6.8c10.4,4.5,19.5,10.6,27.3,18.4s14,16.9,18.5,27.4s6.8,21.8,6.8,33.8L294.8,117.1L294.8,117.1z
		"/>
</g>
<polygon class="st1" points="208.7,203.5 189.9,203.5 189.9,195.6 "/>
<rect x="90.5" y="197.5" class="st4" width="23.2" height="5.9"/>
<circle class="st6" cx="95.8" cy="118.2" r="11.8"/>
<circle class="st6" cx="209.8" cy="118.2" r="11.8"/>
</svg>
