<?xml version="1.0" encoding="UTF-8"?>
<!DOCTYPE svg PUBLIC "-//W3C//DTD SVG 1.1//EN" "http://www.w3.org/Graphics/SVG/1.1/DTD/svg11.dtd">
<svg version="1.1" xmlns="http://www.w3.org/2000/svg" xmlns:xlink="http://www.w3.org/1999/xlink" x="0" y="0" width="20" height="21" viewBox="0, 0, 20, 21">
  <g id="Layer_1">
    <g>
      <path d="M2.278,6.65 L8.505,6.65 L8.505,9.85 L2.278,9.85" fill-opacity="0" stroke="#2C55CC" stroke-width="0.5"/>
      <path d="M2.278,10.1 L2.278,6.4" fill-opacity="0" stroke="#2C55CC" stroke-width="1"/>
    </g>
    <g>
      <path d="M4.05,20.5 L4.05,16.8" fill-opacity="0" stroke="#2C55CC" stroke-width="1"/>
      <path d="M4.05,17.05 L10.277,17.05 L10.277,20.25 L4.05,20.25" fill-opacity="0" stroke="#2C55CC" stroke-width="0.5"/>
    </g>
    <g>
      <path d="M3.057,12.05 L9.283,12.05 L9.283,15.25 L3.057,15.25" fill-opacity="0" stroke="#2C55CC" stroke-width="0.5"/>
      <path d="M3.057,15.5 L3.057,11.8" fill-opacity="0" stroke="#2C55CC" stroke-width="1"/>
    </g>
    <g>
      <path d="M12.655,12.05 L18.881,12.05 L18.881,15.25 L12.655,15.25" fill-opacity="0" stroke="#2C55CC" stroke-width="0.5"/>
      <path d="M12.655,15.5 L12.655,11.8" fill-opacity="0" stroke="#2C55CC" stroke-width="1"/>
    </g>
    <g>
      <path d="M11.877,6.65 L18.103,6.65 L18.103,9.85 L11.877,9.85" fill-opacity="0" stroke="#2C55CC" stroke-width="0.5"/>
      <path d="M11.877,10.1 L11.877,6.4" fill-opacity="0" stroke="#2C55CC" stroke-width="1"/>
    </g>
    <g>
      <path d="M1.5,1.5 L7.726,1.5 L7.726,4.7 L1.5,4.7" fill-opacity="0" stroke="#2C55CC" stroke-width="0.5"/>
      <path d="M1.5,4.95 L1.5,1.25" fill-opacity="0" stroke="#2C55CC" stroke-width="1"/>
    </g>
    <g>
      <path d="M11.098,1.5 L17.325,1.5 L17.325,4.7 L11.098,4.7" fill-opacity="0" stroke="#2C55CC" stroke-width="0.5"/>
      <path d="M11.098,4.95 L11.098,1.25" fill-opacity="0" stroke="#2C55CC" stroke-width="1"/>
    </g>
    <g>
      <path d="M13.649,20.5 L13.649,16.8" fill-opacity="0" stroke="#2C55CC" stroke-width="1"/>
      <path d="M13.649,17.05 L19.875,17.05 L19.875,20.25 L13.649,20.25" fill-opacity="0" stroke="#2C55CC" stroke-width="0.5"/>
    </g>
  </g>
</svg>
