<?xml version="1.0" encoding="UTF-8"?>
<!DOCTYPE svg PUBLIC "-//W3C//DTD SVG 1.1//EN" "http://www.w3.org/Graphics/SVG/1.1/DTD/svg11.dtd">
<svg version="1.1" xmlns="http://www.w3.org/2000/svg" xmlns:xlink="http://www.w3.org/1999/xlink" x="0" y="0" width="128" height="80" viewBox="0, 0, 128, 80">
  <g id="Image">
      <path d="M22.741,80.5 L106.564,0.5" fill-opacity="0" stroke="#2B55CC" stroke-width="6"/>
      <path d="M68.907,21.98 C52.61,20.124 43.325,29.87 45.087,45.304 L49.73,40.282 C49.772,32.583 56.619,26.669 64.266,26.705" fill="#2B55CC"/>
      <path d="M81.9,9.285 C35.488,0.17 4.565,28.207 0.5,40.054 L6.654,40.083 C13.787,29.733 39.766,5.53 77.259,14.009" fill="#2B55CC"/>
      <path d="M25.601,63.902 C15.167,58.81 5.059,50.458 0.5,40.054 L6.654,40.083 C14.597,50.502 17.659,53.186 29.933,59.472" fill="#2B55CC"/>
      <path d="M103.398,16.8 C113.831,21.892 123.94,30.244 128.498,40.648 L122.345,40.619 C114.401,30.2 111.339,27.516 99.066,21.23" fill="#2B55CC"/>
      <path d="M47.1,71.192 C93.512,80.306 124.435,52.269 128.5,40.422 L122.346,40.394 C115.212,50.743 89.234,74.947 51.741,66.467" fill="#2B55CC"/>
      <path d="M59.546,59.401 C75.844,61.257 85.128,51.511 83.367,36.077 L78.724,41.099 C78.682,48.798 71.835,54.712 64.188,54.677" fill="#2B55CC"/>
  </g>
</svg>
